<svg xmlns="http://www.w3.org/2000/svg" viewBox="0 0 1600 1000" role="img" aria-label="24 hour precipitation forecast F048">
  <rect width="1600" height="1000" fill="#f9fbfc"/>
  <g stroke="#d5dde4" stroke-width="2">
    <path d="M100 760 C260 710 300 540 440 500 C610 450 650 320 820 280 C970 245 1060 340 1180 310 C1310 280 1380 330 1490 260"/>
    <path d="M140 230 C280 250 370 320 510 310 C690 298 740 210 900 190 C1050 172 1170 250 1320 230"/>
    <path d="M200 860 C340 805 410 735 560 700 C720 665 780 730 930 665 C1080 600 1160 530 1300 545 C1405 558 1460 600 1530 650"/>
  </g>
  <g fill="none" stroke="#b6c3cc" stroke-width="3">
    <path d="M360 700 C460 600 520 600 620 520 C700 455 760 370 870 340 C990 308 1060 380 1160 360 C1260 340 1310 300 1425 330"/>
    <path d="M470 820 C590 735 700 750 790 675 C870 610 970 615 1060 540 C1160 455 1240 500 1350 455"/>
  </g>
  <g opacity="0.86">
    <ellipse cx="760" cy="650" rx="300" ry="130" fill="#9ad4ee"/>
    <ellipse cx="835" cy="660" rx="215" ry="92" fill="#4b93c4"/>
    <ellipse cx="920" cy="672" rx="145" ry="60" fill="#31a45f"/>
    <ellipse cx="970" cy="680" rx="85" ry="35" fill="#f2d34c"/>
    <ellipse cx="1005" cy="688" rx="42" ry="18" fill="#e78935"/>
  </g>
  <g opacity="0.76">
    <ellipse cx="1195" cy="470" rx="190" ry="78" fill="#9ad4ee"/>
    <ellipse cx="1230" cy="478" rx="125" ry="50" fill="#4b93c4"/>
    <ellipse cx="1270" cy="485" rx="75" ry="30" fill="#31a45f"/>
  </g>
  <g fill="#142033" opacity="0.8" font-family="Arial, sans-serif">
    <text x="70" y="84" font-size="34" font-weight="700">24h Accumulated Precipitation</text>
    <text x="70" y="124" font-size="22">Run 2026-07-09 08:00 CST | Lead F048 | Demo product</text>
    <text x="1230" y="905" font-size="20">IAP-LACS Forecast</text>
  </g>
  <g transform="translate(70 850)">
    <rect width="420" height="26" fill="url(#legend)" stroke="#d8e0e6"/>
    <text x="0" y="58" font-size="18" fill="#667386">0</text>
    <text x="130" y="58" font-size="18" fill="#667386">25</text>
    <text x="270" y="58" font-size="18" fill="#667386">100</text>
    <text x="380" y="58" font-size="18" fill="#667386">150+ mm</text>
  </g>
  <defs>
    <linearGradient id="legend" x1="0" x2="1">
      <stop offset="0" stop-color="#e8f2f5"/>
      <stop offset="0.2" stop-color="#9ad4ee"/>
      <stop offset="0.4" stop-color="#4b93c4"/>
      <stop offset="0.6" stop-color="#31a45f"/>
      <stop offset="0.8" stop-color="#f2d34c"/>
      <stop offset="1" stop-color="#bd3434"/>
    </linearGradient>
  </defs>
</svg>
