<svg xmlns="http://www.w3.org/2000/svg" viewBox="0 0 1600 1000" role="img" aria-label="24 hour precipitation forecast F024">
  <rect width="1600" height="1000" fill="#f9fbfc"/>
  <g stroke="#d5dde4" stroke-width="2">
    <path d="M110 780 C240 690 280 520 390 460 C520 390 590 280 760 240 C920 200 1020 300 1140 270 C1280 230 1380 270 1480 200"/>
    <path d="M160 260 C290 230 380 310 510 300 C660 288 710 190 860 170 C1040 150 1130 230 1300 210"/>
    <path d="M220 860 C350 810 420 720 540 690 C690 650 760 710 890 650 C1030 585 1100 510 1260 520 C1370 528 1430 570 1510 620"/>
  </g>
  <g fill="none" stroke="#b6c3cc" stroke-width="3">
    <path d="M300 660 C390 560 470 570 560 500 C650 430 660 340 770 310 C890 276 960 350 1060 330 C1160 310 1220 260 1330 290"/>
    <path d="M420 790 C520 700 650 730 720 640 C800 540 900 590 990 510 C1090 420 1170 450 1280 400"/>
  </g>
  <g opacity="0.86">
    <ellipse cx="550" cy="590" rx="250" ry="120" fill="#9ad4ee"/>
    <ellipse cx="610" cy="600" rx="185" ry="84" fill="#4b93c4"/>
    <ellipse cx="690" cy="615" rx="120" ry="55" fill="#31a45f"/>
    <ellipse cx="740" cy="628" rx="72" ry="34" fill="#f2d34c"/>
    <ellipse cx="775" cy="635" rx="38" ry="18" fill="#e78935"/>
  </g>
  <g opacity="0.8">
    <ellipse cx="1050" cy="430" rx="230" ry="96" fill="#9ad4ee"/>
    <ellipse cx="1098" cy="438" rx="160" ry="65" fill="#4b93c4"/>
    <ellipse cx="1150" cy="448" rx="95" ry="38" fill="#31a45f"/>
    <ellipse cx="1190" cy="454" rx="48" ry="22" fill="#f2d34c"/>
  </g>
  <g fill="#142033" opacity="0.8" font-family="Arial, sans-serif">
    <text x="70" y="84" font-size="34" font-weight="700">24h Accumulated Precipitation</text>
    <text x="70" y="124" font-size="22">Run 2026-07-09 08:00 CST | Lead F024 | Demo product</text>
    <text x="1230" y="905" font-size="20">IAP-LACS Forecast</text>
  </g>
  <g transform="translate(70 850)">
    <rect width="420" height="26" fill="url(#legend)" stroke="#d8e0e6"/>
    <text x="0" y="58" font-size="18" fill="#667386">0</text>
    <text x="130" y="58" font-size="18" fill="#667386">25</text>
    <text x="270" y="58" font-size="18" fill="#667386">100</text>
    <text x="380" y="58" font-size="18" fill="#667386">150+ mm</text>
  </g>
  <defs>
    <linearGradient id="legend" x1="0" x2="1">
      <stop offset="0" stop-color="#e8f2f5"/>
      <stop offset="0.2" stop-color="#9ad4ee"/>
      <stop offset="0.4" stop-color="#4b93c4"/>
      <stop offset="0.6" stop-color="#31a45f"/>
      <stop offset="0.8" stop-color="#f2d34c"/>
      <stop offset="1" stop-color="#bd3434"/>
    </linearGradient>
  </defs>
</svg>
