<svg xmlns="http://www.w3.org/2000/svg" viewBox="0 0 1600 1000" role="img" aria-label="2 meter temperature forecast F048">
  <rect width="1600" height="1000" fill="#f9fbfc"/>
  <defs>
    <linearGradient id="tempField" x1="0" x2="1" y1="1" y2="0">
      <stop offset="0" stop-color="#31599a"/>
      <stop offset="0.28" stop-color="#62a5d8"/>
      <stop offset="0.55" stop-color="#f6e58d"/>
      <stop offset="0.76" stop-color="#ef8b44"/>
      <stop offset="1" stop-color="#b73b3b"/>
    </linearGradient>
  </defs>
  <rect x="110" y="160" width="1380" height="690" fill="url(#tempField)" opacity="0.9"/>
  <g fill="none" stroke="#ffffff" stroke-opacity="0.72" stroke-width="3">
    <path d="M180 720 C350 690 455 620 590 590 C760 552 890 640 1050 590 C1220 536 1300 475 1435 500"/>
    <path d="M170 560 C330 520 455 540 600 470 C755 395 900 445 1030 390 C1160 332 1265 360 1450 305"/>
    <path d="M210 360 C385 380 520 322 670 300 C840 270 990 300 1165 252 C1280 220 1370 226 1460 210"/>
  </g>
  <g fill="#142033" opacity="0.82" font-family="Arial, sans-serif">
    <text x="70" y="84" font-size="34" font-weight="700">2m Temperature</text>
    <text x="70" y="124" font-size="22">Run 2026-07-09 08:00 CST | Lead F048 | Demo product</text>
    <text x="1230" y="905" font-size="20">IAP-LACS Forecast</text>
  </g>
  <g fill="#ffffff" font-family="Arial, sans-serif" font-size="28" font-weight="700" opacity="0.9">
    <text x="345" y="670">24</text>
    <text x="780" y="520">31</text>
    <text x="1160" y="385">36</text>
  </g>
</svg>
