<svg xmlns="http://www.w3.org/2000/svg" viewBox="0 0 1600 1000" role="img" aria-label="2 meter temperature forecast F024">
  <rect width="1600" height="1000" fill="#f9fbfc"/>
  <defs>
    <linearGradient id="tempField" x1="0" x2="1" y1="1" y2="0">
      <stop offset="0" stop-color="#31599a"/>
      <stop offset="0.34" stop-color="#62a5d8"/>
      <stop offset="0.58" stop-color="#f6e58d"/>
      <stop offset="0.78" stop-color="#ef8b44"/>
      <stop offset="1" stop-color="#b73b3b"/>
    </linearGradient>
  </defs>
  <rect x="110" y="160" width="1380" height="690" fill="url(#tempField)" opacity="0.86"/>
  <g fill="none" stroke="#ffffff" stroke-opacity="0.72" stroke-width="3">
    <path d="M180 700 C330 660 410 580 560 560 C740 535 850 620 1030 570 C1190 525 1280 445 1435 470"/>
    <path d="M160 540 C310 490 420 510 560 450 C710 385 850 420 990 365 C1120 312 1240 340 1440 285"/>
    <path d="M210 330 C380 355 500 300 650 275 C840 245 980 280 1150 230 C1260 198 1350 205 1460 185"/>
  </g>
  <g fill="#142033" opacity="0.82" font-family="Arial, sans-serif">
    <text x="70" y="84" font-size="34" font-weight="700">2m Temperature</text>
    <text x="70" y="124" font-size="22">Run 2026-07-09 08:00 CST | Lead F024 | Demo product</text>
    <text x="1230" y="905" font-size="20">IAP-LACS Forecast</text>
  </g>
  <g fill="#ffffff" font-family="Arial, sans-serif" font-size="28" font-weight="700" opacity="0.9">
    <text x="360" y="650">22</text>
    <text x="760" y="500">29</text>
    <text x="1140" y="360">34</text>
  </g>
</svg>
