<svg xmlns="http://www.w3.org/2000/svg" viewBox="0 0 1600 1000" role="img" aria-label="10 meter wind forecast F024">
  <rect width="1600" height="1000" fill="#f9fbfc"/>
  <rect x="100" y="150" width="1400" height="710" fill="#eef5f8"/>
  <g fill="none" stroke="#c9d4dd" stroke-width="2">
    <path d="M130 760 C300 675 430 725 590 630 C780 515 960 560 1120 450 C1260 355 1360 385 1485 325"/>
    <path d="M130 520 C340 455 475 515 650 420 C820 328 950 360 1115 285 C1265 215 1360 250 1485 190"/>
  </g>
  <g stroke="#2c5f9e" stroke-width="5" stroke-linecap="round" opacity="0.88">
    <path d="M250 300 l70 -35 l-18 30 M320 265 l-36 -3"/>
    <path d="M480 420 l75 -30 l-21 28 M555 390 l-34 -5"/>
    <path d="M700 335 l80 -24 l-24 26 M780 311 l-36 -8"/>
    <path d="M920 500 l82 -18 l-26 24 M1002 482 l-35 -10"/>
    <path d="M1160 390 l86 -20 l-27 25 M1246 370 l-36 -9"/>
    <path d="M1320 620 l72 -32 l-20 29 M1392 588 l-34 -4"/>
    <path d="M360 650 l82 -22 l-25 26 M442 628 l-36 -8"/>
    <path d="M640 720 l86 -18 l-28 24 M726 702 l-37 -10"/>
    <path d="M1070 720 l75 -34 l-20 30 M1145 686 l-36 -4"/>
  </g>
  <g fill="#142033" opacity="0.82" font-family="Arial, sans-serif">
    <text x="70" y="84" font-size="34" font-weight="700">10m Wind Field</text>
    <text x="70" y="124" font-size="22">Run 2026-07-09 08:00 CST | Lead F024 | Demo product</text>
    <text x="1230" y="905" font-size="20">IAP-LACS Forecast</text>
  </g>
  <g transform="translate(70 850)">
    <rect width="420" height="26" fill="url(#legend)" stroke="#d8e0e6"/>
    <text x="0" y="58" font-size="18" fill="#667386">0</text>
    <text x="140" y="58" font-size="18" fill="#667386">8</text>
    <text x="275" y="58" font-size="18" fill="#667386">16</text>
    <text x="378" y="58" font-size="18" fill="#667386">20+ m/s</text>
  </g>
  <defs>
    <linearGradient id="legend" x1="0" x2="1">
      <stop offset="0" stop-color="#f0f4f8"/>
      <stop offset="0.25" stop-color="#b8d7ea"/>
      <stop offset="0.55" stop-color="#5f9ec9"/>
      <stop offset="0.78" stop-color="#2c5f9e"/>
      <stop offset="1" stop-color="#21365f"/>
    </linearGradient>
  </defs>
</svg>
