<svg xmlns="http://www.w3.org/2000/svg" viewBox="0 0 1600 1000" role="img" aria-label="10 meter wind forecast F048">
  <rect width="1600" height="1000" fill="#f9fbfc"/>
  <rect x="100" y="150" width="1400" height="710" fill="#eef5f8"/>
  <g fill="none" stroke="#c9d4dd" stroke-width="2">
    <path d="M130 735 C310 650 455 700 615 610 C800 505 980 540 1140 430 C1280 335 1375 365 1485 300"/>
    <path d="M130 495 C345 430 500 495 675 390 C840 295 975 335 1145 260 C1288 195 1378 225 1485 170"/>
  </g>
  <g stroke="#2c5f9e" stroke-width="5" stroke-linecap="round" opacity="0.88">
    <path d="M250 330 l55 -55 l-8 35 M305 275 l-34 9"/>
    <path d="M500 450 l62 -48 l-12 34 M562 402 l-34 5"/>
    <path d="M735 360 l68 -42 l-16 34 M803 318 l-34 2"/>
    <path d="M960 520 l74 -32 l-20 30 M1034 488 l-35 -4"/>
    <path d="M1190 405 l78 -30 l-21 30 M1268 375 l-35 -5"/>
    <path d="M1330 640 l60 -48 l-12 34 M1390 592 l-34 5"/>
    <path d="M370 675 l70 -40 l-17 32 M440 635 l-35 1"/>
    <path d="M650 735 l78 -28 l-22 29 M728 707 l-36 -5"/>
    <path d="M1085 735 l66 -45 l-16 33 M1151 690 l-35 3"/>
  </g>
  <g fill="#142033" opacity="0.82" font-family="Arial, sans-serif">
    <text x="70" y="84" font-size="34" font-weight="700">10m Wind Field</text>
    <text x="70" y="124" font-size="22">Run 2026-07-09 08:00 CST | Lead F048 | Demo product</text>
    <text x="1230" y="905" font-size="20">IAP-LACS Forecast</text>
  </g>
  <g transform="translate(70 850)">
    <rect width="420" height="26" fill="url(#legend)" stroke="#d8e0e6"/>
    <text x="0" y="58" font-size="18" fill="#667386">0</text>
    <text x="140" y="58" font-size="18" fill="#667386">8</text>
    <text x="275" y="58" font-size="18" fill="#667386">16</text>
    <text x="378" y="58" font-size="18" fill="#667386">20+ m/s</text>
  </g>
  <defs>
    <linearGradient id="legend" x1="0" x2="1">
      <stop offset="0" stop-color="#f0f4f8"/>
      <stop offset="0.25" stop-color="#b8d7ea"/>
      <stop offset="0.55" stop-color="#5f9ec9"/>
      <stop offset="0.78" stop-color="#2c5f9e"/>
      <stop offset="1" stop-color="#21365f"/>
    </linearGradient>
  </defs>
</svg>
